<svg xmlns="http://www.w3.org/2000/svg" width="57" height="57" viewBox="0 0 57 57">
  <g fill="none" fill-rule="evenodd">
    <path fill="#00B0FF" d="M28.5,0 C44.24,0 57,12.76 57,28.5 C57,44.24 44.24,57 28.5,57 C12.76,57 0,44.24 0,28.5 C0,12.76 12.76,0 28.5,0 Z"/>
    <path fill="#FFFFFF" d="M35.7,31.9 C35.26,33.5 34.46,34.86 33.3,35.98 C32.14,37.1 30.7,37.94 28.98,38.5 C27.26,39.06 25.38,39.34 23.34,39.34 C21.18,39.34 19.22,39.04 17.46,38.44 C15.7,37.84 14.2,36.96 12.96,35.8 C11.72,34.64 10.76,33.24 10.08,31.6 C9.4,29.96 9.06,28.12 9.06,26.08 C9.06,24.04 9.4,22.2 10.08,20.56 C10.76,18.92 11.72,17.52 12.96,16.36 C14.2,15.2 15.7,14.32 17.46,13.72 C19.22,13.12 21.18,12.82 23.34,12.82 C25.38,12.82 27.26,13.1 28.98,13.66 C30.7,14.22 32.14,15.04 33.3,16.12 C34.46,17.2 35.26,18.52 35.7,20.08 L32.04,21.76 C31.76,20.64 31.28,19.72 30.6,19 C29.92,18.28 29.1,17.74 28.14,17.38 C27.18,17.02 26.16,16.84 25.08,16.84 C23.36,16.84 21.88,17.16 20.64,17.8 C19.4,18.44 18.4,19.3 17.64,20.38 C16.88,21.46 16.32,22.68 15.96,24.04 C15.6,25.4 15.42,26.8 15.42,28.24 C15.42,29.68 15.6,31.08 15.96,32.44 C16.32,33.8 16.88,35.02 17.64,36.1 C18.4,37.18 19.4,38.04 20.64,38.68 C21.88,39.32 23.36,39.64 25.08,39.64 C27.4,39.64 29.3,39.08 30.78,37.96 C32.26,36.84 33.26,35.24 33.78,33.16 L35.7,31.9 Z"/>
    <path fill="#FFFFFF" d="M43.74,20.12 C44.42,18.36 45.34,16.88 46.5,15.68 L48.66,17.84 C47.7,18.72 46.94,19.82 46.38,21.14 C45.82,22.46 45.54,24.06 45.54,25.94 L45.54,39.04 L40.38,39.04 L40.38,25.94 C40.38,23.9 40.66,22.14 41.22,20.66 L43.74,20.12 Z"/>
  </g>
</svg>
